<svg width="394" height="140" viewBox="0 0 394 140" fill="none" xmlns="http://www.w3.org/2000/svg">
<g filter="url(#filter0_d_0_2774)">
<rect x="44" y="44" width="306" height="52" rx="26" fill="white"/>
</g>
<g clip-path="url(#clip0_0_2774)">
<rect x="52" y="52" width="36" height="35" rx="17.5" fill="#954AFC"/>
<mask id="mask0_0_2774" style="mask-type:luminance" maskUnits="userSpaceOnUse" x="62" y="60" width="18" height="18">
<path d="M62 60H80V78H62V60Z" fill="white"/>
</mask>
<g mask="url(#mask0_0_2774)">
<path d="M70.4398 60.1477C70.7843 59.9508 71.2095 59.9508 71.5577 60.1477L77.5969 63.5966L77.7479 63.6562V63.6877L79.4319 64.651C79.6472 64.7742 79.8159 64.965 79.9118 65.1938C80.0078 65.4226 80.0256 65.6767 79.9625 65.9167C79.899 66.1564 79.7581 66.3684 79.5617 66.5198C79.3653 66.6711 79.1244 66.7534 78.8764 66.7537H63.1244C62.8765 66.7534 62.6356 66.6712 62.4392 66.5199C62.2428 66.3686 62.1019 66.1566 62.0384 65.9169C61.9753 65.677 61.9931 65.4229 62.089 65.1941C62.185 64.9653 62.3537 64.7745 62.569 64.6513L64.2493 63.688V63.6562L64.404 63.6L70.4398 60.1477ZM64.2493 67.875H66.4991V74.625H67.9052V67.875H70.1549V74.625H71.8423V67.875H74.092V74.625H75.4981V67.875H77.7479V74.776C77.769 74.7867 77.7901 74.8008 77.8112 74.8148L79.4985 75.9398C79.6994 76.0738 79.8519 76.2687 79.9336 76.4959C80.0153 76.7232 80.0218 76.9706 79.9521 77.2018C79.8815 77.433 79.7385 77.6353 79.5441 77.779C79.3498 77.9227 79.1145 78.0002 78.8728 78H63.1244C62.8832 78.0001 62.6483 77.9226 62.4546 77.7788C62.2609 77.6351 62.1186 77.4327 62.0488 77.2018C61.9783 76.9707 61.9843 76.7229 62.0661 76.4955C62.1478 76.2681 62.3009 76.0732 62.5024 75.9398L64.1897 74.8148C64.2108 74.8008 64.2319 74.7904 64.253 74.776V67.875H64.2493Z" fill="white"/>
</g>
</g>
<path d="M101.698 77V74.144H95.663V72.478L101.613 64.335H103.602V72.478H105.353V74.144H103.602V77H101.698ZM97.142 73.209L96.819 72.478H101.698V65.933L102.242 66.103L97.142 73.209ZM110.084 77V64.131H112.005V69.605L111.699 69.367C111.926 68.789 112.288 68.3527 112.787 68.058C113.286 67.752 113.864 67.599 114.521 67.599C115.201 67.599 115.802 67.7463 116.323 68.041C116.844 68.3357 117.252 68.7437 117.547 69.265C117.842 69.7863 117.989 70.3813 117.989 71.05V77H116.085V71.577C116.085 71.1123 115.994 70.7213 115.813 70.404C115.643 70.0753 115.405 69.826 115.099 69.656C114.793 69.4747 114.442 69.384 114.045 69.384C113.66 69.384 113.308 69.4747 112.991 69.656C112.685 69.826 112.441 70.0753 112.26 70.404C112.09 70.7327 112.005 71.1237 112.005 71.577V77H110.084ZM124.482 77.204C123.598 77.204 122.788 76.9943 122.051 76.575C121.326 76.1557 120.748 75.5833 120.317 74.858C119.886 74.1327 119.671 73.311 119.671 72.393C119.671 71.4637 119.886 70.642 120.317 69.928C120.748 69.2027 121.326 68.636 122.051 68.228C122.776 67.8087 123.587 67.599 124.482 67.599C125.389 67.599 126.199 67.8087 126.913 68.228C127.638 68.636 128.211 69.2027 128.63 69.928C129.061 70.642 129.276 71.4637 129.276 72.393C129.276 73.3223 129.061 74.1497 128.63 74.875C128.199 75.6003 127.621 76.1727 126.896 76.592C126.171 77 125.366 77.204 124.482 77.204ZM124.482 75.419C125.026 75.419 125.508 75.2887 125.927 75.028C126.346 74.7673 126.675 74.4103 126.913 73.957C127.162 73.4923 127.287 72.971 127.287 72.393C127.287 71.815 127.162 71.2993 126.913 70.846C126.675 70.3927 126.346 70.0357 125.927 69.775C125.508 69.5143 125.026 69.384 124.482 69.384C123.949 69.384 123.468 69.5143 123.037 69.775C122.618 70.0357 122.283 70.3927 122.034 70.846C121.796 71.2993 121.677 71.815 121.677 72.393C121.677 72.971 121.796 73.4923 122.034 73.957C122.283 74.4103 122.618 74.7673 123.037 75.028C123.468 75.2887 123.949 75.419 124.482 75.419ZM134.432 77.204C133.741 77.204 133.135 77.051 132.613 76.745C132.092 76.4277 131.684 75.9913 131.389 75.436C131.106 74.8693 130.964 74.2177 130.964 73.481V67.803H132.885V73.311C132.885 73.7303 132.97 74.0987 133.14 74.416C133.31 74.7333 133.548 74.9827 133.854 75.164C134.16 75.334 134.512 75.419 134.908 75.419C135.316 75.419 135.673 75.3283 135.979 75.147C136.285 74.9657 136.523 74.7107 136.693 74.382C136.875 74.0533 136.965 73.668 136.965 73.226V67.803H138.869V77H137.05V75.198L137.254 75.436C137.039 76.0027 136.682 76.439 136.183 76.745C135.685 77.051 135.101 77.204 134.432 77.204ZM144.512 77.204C143.572 77.204 142.744 76.9717 142.03 76.507C141.328 76.0423 140.835 75.419 140.551 74.637L142.03 73.94C142.28 74.4613 142.62 74.875 143.05 75.181C143.492 75.487 143.98 75.64 144.512 75.64C144.966 75.64 145.334 75.538 145.617 75.334C145.901 75.13 146.042 74.8523 146.042 74.501C146.042 74.2743 145.98 74.093 145.855 73.957C145.731 73.8097 145.572 73.6907 145.379 73.6C145.198 73.5093 145.011 73.4413 144.818 73.396L143.373 72.988C142.58 72.7613 141.985 72.4213 141.588 71.968C141.203 71.5033 141.01 70.965 141.01 70.353C141.01 69.7977 141.152 69.316 141.435 68.908C141.719 68.4887 142.11 68.1657 142.608 67.939C143.107 67.7123 143.668 67.599 144.291 67.599C145.13 67.599 145.878 67.8087 146.535 68.228C147.193 68.636 147.657 69.2083 147.929 69.945L146.45 70.642C146.269 70.2 145.98 69.8487 145.583 69.588C145.198 69.3273 144.762 69.197 144.274 69.197C143.855 69.197 143.521 69.299 143.271 69.503C143.022 69.6957 142.897 69.9507 142.897 70.268C142.897 70.4833 142.954 70.6647 143.067 70.812C143.181 70.948 143.328 71.0613 143.509 71.152C143.691 71.2313 143.878 71.2993 144.07 71.356L145.566 71.798C146.326 72.0133 146.909 72.3533 147.317 72.818C147.725 73.2713 147.929 73.8153 147.929 74.45C147.929 74.994 147.782 75.4757 147.487 75.895C147.204 76.303 146.807 76.626 146.297 76.864C145.787 77.0907 145.192 77.204 144.512 77.204ZM154.129 77.204C153.211 77.204 152.395 76.9943 151.681 76.575C150.979 76.1443 150.429 75.5663 150.032 74.841C149.636 74.1043 149.437 73.2827 149.437 72.376C149.437 71.4467 149.636 70.625 150.032 69.911C150.44 69.197 150.984 68.636 151.664 68.228C152.344 67.8087 153.115 67.599 153.976 67.599C154.668 67.599 155.285 67.718 155.829 67.956C156.373 68.194 156.832 68.5227 157.206 68.942C157.58 69.35 157.864 69.8203 158.056 70.353C158.26 70.8857 158.362 71.4523 158.362 72.053C158.362 72.2003 158.357 72.3533 158.345 72.512C158.334 72.6707 158.311 72.818 158.277 72.954H150.95V71.424H157.189L156.271 72.121C156.385 71.5657 156.345 71.0727 156.152 70.642C155.971 70.2 155.688 69.8543 155.302 69.605C154.928 69.3443 154.486 69.214 153.976 69.214C153.466 69.214 153.013 69.3443 152.616 69.605C152.22 69.8543 151.914 70.217 151.698 70.693C151.483 71.1577 151.398 71.7243 151.443 72.393C151.387 73.0163 151.472 73.5603 151.698 74.025C151.936 74.4897 152.265 74.8523 152.684 75.113C153.115 75.3737 153.602 75.504 154.146 75.504C154.702 75.504 155.172 75.3793 155.557 75.13C155.954 74.8807 156.266 74.5577 156.492 74.161L158.056 74.926C157.875 75.3567 157.592 75.7477 157.206 76.099C156.832 76.439 156.379 76.711 155.846 76.915C155.325 77.1077 154.753 77.204 154.129 77.204ZM163.637 77.204C162.697 77.204 161.869 76.9717 161.155 76.507C160.453 76.0423 159.96 75.419 159.676 74.637L161.155 73.94C161.405 74.4613 161.745 74.875 162.175 75.181C162.617 75.487 163.105 75.64 163.637 75.64C164.091 75.64 164.459 75.538 164.742 75.334C165.026 75.13 165.167 74.8523 165.167 74.501C165.167 74.2743 165.105 74.093 164.98 73.957C164.856 73.8097 164.697 73.6907 164.504 73.6C164.323 73.5093 164.136 73.4413 163.943 73.396L162.498 72.988C161.705 72.7613 161.11 72.4213 160.713 71.968C160.328 71.5033 160.135 70.965 160.135 70.353C160.135 69.7977 160.277 69.316 160.56 68.908C160.844 68.4887 161.235 68.1657 161.733 67.939C162.232 67.7123 162.793 67.599 163.416 67.599C164.255 67.599 165.003 67.8087 165.66 68.228C166.318 68.636 166.782 69.2083 167.054 69.945L165.575 70.642C165.394 70.2 165.105 69.8487 164.708 69.588C164.323 69.3273 163.887 69.197 163.399 69.197C162.98 69.197 162.646 69.299 162.396 69.503C162.147 69.6957 162.022 69.9507 162.022 70.268C162.022 70.4833 162.079 70.6647 162.192 70.812C162.306 70.948 162.453 71.0613 162.634 71.152C162.816 71.2313 163.003 71.2993 163.195 71.356L164.691 71.798C165.451 72.0133 166.034 72.3533 166.442 72.818C166.85 73.2713 167.054 73.8153 167.054 74.45C167.054 74.994 166.907 75.4757 166.612 75.895C166.329 76.303 165.932 76.626 165.422 76.864C164.912 77.0907 164.317 77.204 163.637 77.204ZM174.662 77.204C174.039 77.204 173.489 77.0963 173.013 76.881C172.548 76.6543 172.186 76.3483 171.925 75.963C171.664 75.5663 171.534 75.1017 171.534 74.569C171.534 74.0703 171.642 73.6227 171.857 73.226C172.084 72.8293 172.429 72.495 172.894 72.223C173.359 71.951 173.942 71.7583 174.645 71.645L177.841 71.118V72.631L175.019 73.124C174.509 73.2147 174.135 73.379 173.897 73.617C173.659 73.8437 173.54 74.1383 173.54 74.501C173.54 74.8523 173.67 75.1413 173.931 75.368C174.203 75.5833 174.549 75.691 174.968 75.691C175.489 75.691 175.943 75.5777 176.328 75.351C176.725 75.1243 177.031 74.824 177.246 74.45C177.461 74.0647 177.569 73.6397 177.569 73.175V70.812C177.569 70.3587 177.399 69.9903 177.059 69.707C176.73 69.4123 176.288 69.265 175.733 69.265C175.223 69.265 174.775 69.401 174.39 69.673C174.016 69.9337 173.738 70.2737 173.557 70.693L171.959 69.894C172.129 69.4407 172.407 69.044 172.792 68.704C173.177 68.3527 173.625 68.0807 174.135 67.888C174.656 67.6953 175.206 67.599 175.784 67.599C176.509 67.599 177.15 67.735 177.705 68.007C178.272 68.279 178.708 68.6587 179.014 69.146C179.331 69.622 179.49 70.1773 179.49 70.812V77H177.654V75.334L178.045 75.385C177.83 75.759 177.552 76.082 177.212 76.354C176.883 76.626 176.504 76.8357 176.073 76.983C175.654 77.1303 175.183 77.204 174.662 77.204ZM185.986 77.204C185.102 77.204 184.309 76.9943 183.606 76.575C182.915 76.1443 182.365 75.5663 181.957 74.841C181.561 74.1157 181.362 73.2997 181.362 72.393C181.362 71.4863 181.566 70.6703 181.974 69.945C182.382 69.2197 182.932 68.6473 183.623 68.228C184.315 67.8087 185.097 67.599 185.969 67.599C186.706 67.599 187.358 67.7463 187.924 68.041C188.491 68.3357 188.939 68.7437 189.267 69.265L188.978 69.707V64.131H190.882V77H189.063V75.13L189.284 75.487C188.967 76.0423 188.514 76.4673 187.924 76.762C187.335 77.0567 186.689 77.204 185.986 77.204ZM186.173 75.419C186.706 75.419 187.182 75.2887 187.601 75.028C188.032 74.7673 188.366 74.4103 188.604 73.957C188.854 73.4923 188.978 72.971 188.978 72.393C188.978 71.815 188.854 71.2993 188.604 70.846C188.366 70.3927 188.032 70.0357 187.601 69.775C187.182 69.5143 186.706 69.384 186.173 69.384C185.641 69.384 185.159 69.5143 184.728 69.775C184.298 70.0357 183.963 70.3927 183.725 70.846C183.487 71.2993 183.368 71.815 183.368 72.393C183.368 72.971 183.487 73.4923 183.725 73.957C183.963 74.4103 184.292 74.7673 184.711 75.028C185.142 75.2887 185.629 75.419 186.173 75.419ZM197.375 77.204C196.491 77.204 195.698 76.9943 194.995 76.575C194.304 76.1443 193.754 75.5663 193.346 74.841C192.949 74.1157 192.751 73.2997 192.751 72.393C192.751 71.4863 192.955 70.6703 193.363 69.945C193.771 69.2197 194.321 68.6473 195.012 68.228C195.703 67.8087 196.485 67.599 197.358 67.599C198.095 67.599 198.746 67.7463 199.313 68.041C199.88 68.3357 200.327 68.7437 200.656 69.265L200.367 69.707V64.131H202.271V77H200.452V75.13L200.673 75.487C200.356 76.0423 199.902 76.4673 199.313 76.762C198.724 77.0567 198.078 77.204 197.375 77.204ZM197.562 75.419C198.095 75.419 198.571 75.2887 198.99 75.028C199.421 74.7673 199.755 74.4103 199.993 73.957C200.242 73.4923 200.367 72.971 200.367 72.393C200.367 71.815 200.242 71.2993 199.993 70.846C199.755 70.3927 199.421 70.0357 198.99 69.775C198.571 69.5143 198.095 69.384 197.562 69.384C197.029 69.384 196.548 69.5143 196.117 69.775C195.686 70.0357 195.352 70.3927 195.114 70.846C194.876 71.2993 194.757 71.815 194.757 72.393C194.757 72.971 194.876 73.4923 195.114 73.957C195.352 74.4103 195.681 74.7673 196.1 75.028C196.531 75.2887 197.018 75.419 197.562 75.419ZM208.832 77.204C207.914 77.204 207.098 76.9943 206.384 76.575C205.681 76.1443 205.131 75.5663 204.735 74.841C204.338 74.1043 204.14 73.2827 204.14 72.376C204.14 71.4467 204.338 70.625 204.735 69.911C205.143 69.197 205.687 68.636 206.367 68.228C207.047 67.8087 207.817 67.599 208.679 67.599C209.37 67.599 209.988 67.718 210.532 67.956C211.076 68.194 211.535 68.5227 211.909 68.942C212.283 69.35 212.566 69.8203 212.759 70.353C212.963 70.8857 213.065 71.4523 213.065 72.053C213.065 72.2003 213.059 72.3533 213.048 72.512C213.036 72.6707 213.014 72.818 212.98 72.954H205.653V71.424H211.892L210.974 72.121C211.087 71.5657 211.047 71.0727 210.855 70.642C210.673 70.2 210.39 69.8543 210.005 69.605C209.631 69.3443 209.189 69.214 208.679 69.214C208.169 69.214 207.715 69.3443 207.319 69.605C206.922 69.8543 206.616 70.217 206.401 70.693C206.185 71.1577 206.1 71.7243 206.146 72.393C206.089 73.0163 206.174 73.5603 206.401 74.025C206.639 74.4897 206.967 74.8523 207.387 75.113C207.817 75.3737 208.305 75.504 208.849 75.504C209.404 75.504 209.874 75.3793 210.26 75.13C210.656 74.8807 210.968 74.5577 211.195 74.161L212.759 74.926C212.577 75.3567 212.294 75.7477 211.909 76.099C211.535 76.439 211.081 76.711 210.549 76.915C210.027 77.1077 209.455 77.204 208.832 77.204ZM219.189 77.204C218.305 77.204 217.512 76.9943 216.809 76.575C216.118 76.1443 215.568 75.5663 215.16 74.841C214.764 74.1157 214.565 73.2997 214.565 72.393C214.565 71.4863 214.769 70.6703 215.177 69.945C215.585 69.2197 216.135 68.6473 216.826 68.228C217.518 67.8087 218.3 67.599 219.172 67.599C219.909 67.599 220.561 67.7463 221.127 68.041C221.694 68.3357 222.142 68.7437 222.47 69.265L222.181 69.707V64.131H224.085V77H222.266V75.13L222.487 75.487C222.17 76.0423 221.717 76.4673 221.127 76.762C220.538 77.0567 219.892 77.204 219.189 77.204ZM219.376 75.419C219.909 75.419 220.385 75.2887 220.804 75.028C221.235 74.7673 221.569 74.4103 221.807 73.957C222.057 73.4923 222.181 72.971 222.181 72.393C222.181 71.815 222.057 71.2993 221.807 70.846C221.569 70.3927 221.235 70.0357 220.804 69.775C220.385 69.5143 219.909 69.384 219.376 69.384C218.844 69.384 218.362 69.5143 217.931 69.775C217.501 70.0357 217.166 70.3927 216.928 70.846C216.69 71.2993 216.571 71.815 216.571 72.393C216.571 72.971 216.69 73.4923 216.928 73.957C217.166 74.4103 217.495 74.7673 217.914 75.028C218.345 75.2887 218.832 75.419 219.376 75.419ZM233.278 77.102C232.314 77.102 231.566 76.83 231.034 76.286C230.501 75.742 230.235 74.977 230.235 73.991V69.537H228.62V67.803H228.875C229.305 67.803 229.64 67.6783 229.878 67.429C230.116 67.1797 230.235 66.8397 230.235 66.409V65.695H232.156V67.803H234.247V69.537H232.156V73.906C232.156 74.2233 232.207 74.4953 232.309 74.722C232.411 74.9373 232.575 75.1073 232.802 75.232C233.028 75.3453 233.323 75.402 233.686 75.402C233.776 75.402 233.878 75.3963 233.992 75.385C234.105 75.3737 234.213 75.3623 234.315 75.351V77C234.156 77.0227 233.98 77.0453 233.788 77.068C233.595 77.0907 233.425 77.102 233.278 77.102ZM240.46 77.204C239.576 77.204 238.766 76.9943 238.029 76.575C237.304 76.1557 236.726 75.5833 236.295 74.858C235.865 74.1327 235.649 73.311 235.649 72.393C235.649 71.4637 235.865 70.642 236.295 69.928C236.726 69.2027 237.304 68.636 238.029 68.228C238.755 67.8087 239.565 67.599 240.46 67.599C241.367 67.599 242.177 67.8087 242.891 68.228C243.617 68.636 244.189 69.2027 244.608 69.928C245.039 70.642 245.254 71.4637 245.254 72.393C245.254 73.3223 245.039 74.1497 244.608 74.875C244.178 75.6003 243.6 76.1727 242.874 76.592C242.149 77 241.344 77.204 240.46 77.204ZM240.46 75.419C241.004 75.419 241.486 75.2887 241.905 75.028C242.325 74.7673 242.653 74.4103 242.891 73.957C243.141 73.4923 243.265 72.971 243.265 72.393C243.265 71.815 243.141 71.2993 242.891 70.846C242.653 70.3927 242.325 70.0357 241.905 69.775C241.486 69.5143 241.004 69.384 240.46 69.384C239.928 69.384 239.446 69.5143 239.015 69.775C238.596 70.0357 238.262 70.3927 238.012 70.846C237.774 71.2993 237.655 71.815 237.655 72.393C237.655 72.971 237.774 73.4923 238.012 73.957C238.262 74.4103 238.596 74.7673 239.015 75.028C239.446 75.2887 239.928 75.419 240.46 75.419ZM250.101 80.4V67.803H251.937V69.707L251.716 69.265C252.056 68.7437 252.51 68.3357 253.076 68.041C253.643 67.7463 254.289 67.599 255.014 67.599C255.887 67.599 256.669 67.8087 257.36 68.228C258.063 68.6473 258.613 69.2197 259.009 69.945C259.417 70.6703 259.621 71.4863 259.621 72.393C259.621 73.2997 259.417 74.1157 259.009 74.841C258.613 75.5663 258.069 76.1443 257.377 76.575C256.686 76.9943 255.898 77.204 255.014 77.204C254.3 77.204 253.649 77.0567 253.059 76.762C252.481 76.4673 252.034 76.0423 251.716 75.487L252.022 75.13V80.4H250.101ZM254.827 75.419C255.371 75.419 255.853 75.2887 256.272 75.028C256.692 74.7673 257.02 74.4103 257.258 73.957C257.508 73.4923 257.632 72.971 257.632 72.393C257.632 71.815 257.508 71.2993 257.258 70.846C257.02 70.3927 256.692 70.0357 256.272 69.775C255.853 69.5143 255.371 69.384 254.827 69.384C254.295 69.384 253.813 69.5143 253.382 69.775C252.963 70.0357 252.629 70.3927 252.379 70.846C252.141 71.2993 252.022 71.815 252.022 72.393C252.022 72.971 252.141 73.4923 252.379 73.957C252.629 74.4103 252.963 74.7673 253.382 75.028C253.813 75.2887 254.295 75.419 254.827 75.419ZM265.927 77.204C265.043 77.204 264.233 76.9943 263.496 76.575C262.771 76.1557 262.193 75.5833 261.762 74.858C261.331 74.1327 261.116 73.311 261.116 72.393C261.116 71.4637 261.331 70.642 261.762 69.928C262.193 69.2027 262.771 68.636 263.496 68.228C264.221 67.8087 265.032 67.599 265.927 67.599C266.834 67.599 267.644 67.8087 268.358 68.228C269.083 68.636 269.656 69.2027 270.075 69.928C270.506 70.642 270.721 71.4637 270.721 72.393C270.721 73.3223 270.506 74.1497 270.075 74.875C269.644 75.6003 269.066 76.1727 268.341 76.592C267.616 77 266.811 77.204 265.927 77.204ZM265.927 75.419C266.471 75.419 266.953 75.2887 267.372 75.028C267.791 74.7673 268.12 74.4103 268.358 73.957C268.607 73.4923 268.732 72.971 268.732 72.393C268.732 71.815 268.607 71.2993 268.358 70.846C268.12 70.3927 267.791 70.0357 267.372 69.775C266.953 69.5143 266.471 69.384 265.927 69.384C265.394 69.384 264.913 69.5143 264.482 69.775C264.063 70.0357 263.728 70.3927 263.479 70.846C263.241 71.2993 263.122 71.815 263.122 72.393C263.122 72.971 263.241 73.4923 263.479 73.957C263.728 74.4103 264.063 74.7673 264.482 75.028C264.913 75.2887 265.394 75.419 265.927 75.419ZM272.597 77V67.803H274.433V69.656L274.263 69.384C274.467 68.7833 274.795 68.3527 275.249 68.092C275.702 67.82 276.246 67.684 276.881 67.684H277.442V69.435H276.643C276.008 69.435 275.492 69.6333 275.096 70.03C274.71 70.4153 274.518 70.9707 274.518 71.696V77H272.597ZM282.9 77.102C281.936 77.102 281.188 76.83 280.656 76.286C280.123 75.742 279.857 74.977 279.857 73.991V69.537H278.242V67.803H278.497C278.927 67.803 279.262 67.6783 279.5 67.429C279.738 67.1797 279.857 66.8397 279.857 66.409V65.695H281.778V67.803H283.869V69.537H281.778V73.906C281.778 74.2233 281.829 74.4953 281.931 74.722C282.033 74.9373 282.197 75.1073 282.424 75.232C282.65 75.3453 282.945 75.402 283.308 75.402C283.398 75.402 283.5 75.3963 283.614 75.385C283.727 75.3737 283.835 75.3623 283.937 75.351V77C283.778 77.0227 283.602 77.0453 283.41 77.068C283.217 77.0907 283.047 77.102 282.9 77.102ZM286.848 77V69.537H285.148V67.803H286.848V67.327C286.848 66.6357 286.99 66.0577 287.273 65.593C287.557 65.117 287.948 64.7543 288.446 64.505C288.956 64.2557 289.54 64.131 290.197 64.131C290.322 64.131 290.464 64.1423 290.622 64.165C290.781 64.1763 290.911 64.1933 291.013 64.216V65.882C290.923 65.8593 290.821 65.848 290.707 65.848C290.594 65.8367 290.503 65.831 290.435 65.831C289.925 65.831 289.517 65.95 289.211 66.188C288.905 66.4147 288.752 66.7943 288.752 67.327V67.803H290.86V69.537H288.752V77H286.848ZM296.74 77.204C295.856 77.204 295.045 76.9943 294.309 76.575C293.583 76.1557 293.005 75.5833 292.575 74.858C292.144 74.1327 291.929 73.311 291.929 72.393C291.929 71.4637 292.144 70.642 292.575 69.928C293.005 69.2027 293.583 68.636 294.309 68.228C295.034 67.8087 295.844 67.599 296.74 67.599C297.646 67.599 298.457 67.8087 299.171 68.228C299.896 68.636 300.468 69.2027 300.888 69.928C301.318 70.642 301.534 71.4637 301.534 72.393C301.534 73.3223 301.318 74.1497 300.888 74.875C300.457 75.6003 299.879 76.1727 299.154 76.592C298.428 77 297.624 77.204 296.74 77.204ZM296.74 75.419C297.284 75.419 297.765 75.2887 298.185 75.028C298.604 74.7673 298.933 74.4103 299.171 73.957C299.42 73.4923 299.545 72.971 299.545 72.393C299.545 71.815 299.42 71.2993 299.171 70.846C298.933 70.3927 298.604 70.0357 298.185 69.775C297.765 69.5143 297.284 69.384 296.74 69.384C296.207 69.384 295.725 69.5143 295.295 69.775C294.875 70.0357 294.541 70.3927 294.292 70.846C294.054 71.2993 293.935 71.815 293.935 72.393C293.935 72.971 294.054 73.4923 294.292 73.957C294.541 74.4103 294.875 74.7673 295.295 75.028C295.725 75.2887 296.207 75.419 296.74 75.419ZM303.409 77V64.131H305.33V77H303.409ZM307.576 77V67.803H309.497V77H307.576ZM307.576 66.545V64.335H309.497V66.545H307.576ZM316.18 77.204C315.296 77.204 314.486 76.9943 313.749 76.575C313.024 76.1557 312.446 75.5833 312.015 74.858C311.584 74.1327 311.369 73.311 311.369 72.393C311.369 71.4637 311.584 70.642 312.015 69.928C312.446 69.2027 313.024 68.636 313.749 68.228C314.474 67.8087 315.285 67.599 316.18 67.599C317.087 67.599 317.897 67.8087 318.611 68.228C319.336 68.636 319.909 69.2027 320.328 69.928C320.759 70.642 320.974 71.4637 320.974 72.393C320.974 73.3223 320.759 74.1497 320.328 74.875C319.897 75.6003 319.319 76.1727 318.594 76.592C317.869 77 317.064 77.204 316.18 77.204ZM316.18 75.419C316.724 75.419 317.206 75.2887 317.625 75.028C318.044 74.7673 318.373 74.4103 318.611 73.957C318.86 73.4923 318.985 72.971 318.985 72.393C318.985 71.815 318.86 71.2993 318.611 70.846C318.373 70.3927 318.044 70.0357 317.625 69.775C317.206 69.5143 316.724 69.384 316.18 69.384C315.647 69.384 315.166 69.5143 314.735 69.775C314.316 70.0357 313.981 70.3927 313.732 70.846C313.494 71.2993 313.375 71.815 313.375 72.393C313.375 72.971 313.494 73.4923 313.732 73.957C313.981 74.4103 314.316 74.7673 314.735 75.028C315.166 75.2887 315.647 75.419 316.18 75.419Z" fill="#0B0924"/>
<defs>
<filter id="filter0_d_0_2774" x="0.205454" y="0.205454" width="393.589" height="139.589" filterUnits="userSpaceOnUse" color-interpolation-filters="sRGB">
<feFlood flood-opacity="0" result="BackgroundImageFix"/>
<feColorMatrix in="SourceAlpha" type="matrix" values="0 0 0 0 0 0 0 0 0 0 0 0 0 0 0 0 0 0 127 0" result="hardAlpha"/>
<feMorphology radius="3.55091" operator="erode" in="SourceAlpha" result="effect1_dropShadow_0_2774"/>
<feOffset/>
<feGaussianBlur stdDeviation="23.6727"/>
<feComposite in2="hardAlpha" operator="out"/>
<feColorMatrix type="matrix" values="0 0 0 0 0.0470588 0 0 0 0 0.0313726 0 0 0 0 0.223529 0 0 0 0.22 0"/>
<feBlend mode="normal" in2="BackgroundImageFix" result="effect1_dropShadow_0_2774"/>
<feBlend mode="normal" in="SourceGraphic" in2="effect1_dropShadow_0_2774" result="shape"/>
</filter>
<clipPath id="clip0_0_2774">
<rect x="52" y="52" width="36" height="35" rx="17.5" fill="white"/>
</clipPath>
</defs>
</svg>
